# xmcd
#
# Track frame offsets: 
#        182
#        10960
#        27785
#        44312
#        62900
#        76165
#        89280
#        101660
#        114590
#        129280
#        145780
#
# Disc length: 2165 seconds
#
# Revision: 6
# Processed by: cddbd v1.5.2PL0 Copyright (c) Steve Scherf et al.
# Submitted via: ExactAudioCopyFreeDBPlugin 1.0
#
DISCID=8508730b
DTITLE=The Commitments - The Commitments Vol. 2
DYEAR=1992
DGENRE=Soul
TTITLE0=Hard To Handle
TTITLE1=Grits Ain't Groceries
TTITLE2=I Thank You
TTITLE3=That's The Way Love Is
TTITLE4=Show Me
TTITLE5=Saved
TTITLE6=Too Many Fish In The Sea
TTITLE7=Fa-Fa-Fa-Fa-Fa (Sad Song)
TTITLE8=Land Of A Thousand Dances
TTITLE9=Nowhere To Run
TTITLE10=Bring It On Home To Me
EXTD=
EXTT0=
EXTT1=
EXTT2=
EXTT3=
EXTT4=
EXTT5=
EXTT6=
EXTT7=
EXTT8=
EXTT9=
EXTT10=
PLAYORDER=
